<?xml version="1.0" encoding="UTF-8" standalone="no"?>
<svg
   xmlns:dc="http://purl.org/dc/elements/1.1/"
   xmlns:cc="http://creativecommons.org/ns#"
   xmlns:rdf="http://www.w3.org/1999/02/22-rdf-syntax-ns#"
   xmlns:svg="http://www.w3.org/2000/svg"
   xmlns="http://www.w3.org/2000/svg"
   xmlns:sodipodi="http://sodipodi.sourceforge.net/DTD/sodipodi-0.dtd"
   xmlns:inkscape="http://www.inkscape.org/namespaces/inkscape"
   viewBox="0 0 4.4437533 4.4122549"
   width="123.43759"
   height="122.56264"
   id="svg2"
   version="1.1"
   inkscape:version="0.47 r22583"
   sodipodi:docname="Z2Z.svg">
  <metadata
     id="metadata12">
    <rdf:RDF>
      <cc:Work
         rdf:about="">
        <dc:format>image/svg+xml</dc:format>
        <dc:type
           rdf:resource="http://purl.org/dc/dcmitype/StillImage" />
      </cc:Work>
    </rdf:RDF>
  </metadata>
  <defs
     id="defs10">
    <inkscape:perspective
       sodipodi:type="inkscape:persp3d"
       inkscape:vp_x="0 : 250 : 1"
       inkscape:vp_y="0 : 1000 : 0"
       inkscape:vp_z="750 : 250 : 1"
       inkscape:persp3d-origin="375 : 166.66667 : 1"
       id="perspective14" />
    <inkscape:perspective
       id="perspective2926"
       inkscape:persp3d-origin="0.5 : 0.33333333 : 1"
       inkscape:vp_z="1 : 0.5 : 1"
       inkscape:vp_y="0 : 1000 : 0"
       inkscape:vp_x="0 : 0.5 : 1"
       sodipodi:type="inkscape:persp3d" />
    <inkscape:perspective
       id="perspective2823"
       inkscape:persp3d-origin="0.5 : 0.33333333 : 1"
       inkscape:vp_z="1 : 0.5 : 1"
       inkscape:vp_y="0 : 1000 : 0"
       inkscape:vp_x="0 : 0.5 : 1"
       sodipodi:type="inkscape:persp3d" />
  </defs>
  <sodipodi:namedview
     pagecolor="#ffffff"
     bordercolor="#666666"
     borderopacity="1"
     objecttolerance="10"
     gridtolerance="10"
     guidetolerance="10"
     inkscape:pageopacity="0"
     inkscape:pageshadow="2"
     inkscape:window-width="1280"
     inkscape:window-height="1004"
     id="namedview8"
     showgrid="false"
     inkscape:zoom="1.888"
     inkscape:cx="191.31505"
     inkscape:cy="-17.363667"
     inkscape:window-x="-8"
     inkscape:window-y="-8"
     inkscape:window-maximized="1"
     inkscape:current-layer="svg2" />
  <path
     style="fill:#fcdd09"
     d="M 0.7627482,-2.3960073e-8 0.7559982,0.00224998 l -0.0135,0.003375 -0.014625,0.02925 -0.00225,0.00225 -0.0135,0.010125 0.001123,0.048375 -0.00225,0.018 -0.027,0.032625 0,0.009 0,0.001125 0.021375,0.0135 -0.005625,0.02025 -0.003373,0.005625 -0.001123,0.01125 0.005625,0.010125 0.005625,0.012375 0.00225,0.012375 0.001123,0.01125 0.00675,0.012375 0.003373,0.009 0,0.036 0.00675,0.014625 0.00225,0.00675 -0.001123,0.0135 -0.003373,0 0.003373,0.012375 0.005625,0.01125 0.019125,0.023625 0.0045,0.0135 -0.00225,0.014625 0.00675,0.012375 0,0.014625 0.007875,0.0135 0.01125,0.009 0.0135,0.003375 0.01125,0.010125 0.014625,0.001125 0.0135,-0.005625 0.018,0.00675 0.00675,0.009 0,0.009 -0.001123,0.009 -0.00675,0.00675 -0.003373,0.02025 0,0.01125 -0.001123,0.021375 -0.00675,0.018 -0.00675,0.00675 -0.009,0.018 -0.003373,0.010125 0,0.009 -0.009,0.003375 -0.0135,0.0135 -0.003373,0.01125 0.005625,0.007875 0.01125,0.01125 0.001123,0.014625 -0.02475,0.016875 -0.0135,-0.007875 -0.0135,0.005625 -0.00675,0.0135 0,0.0135 0.00675,0.01125 0.01575,0.014625 0,0.009 -0.010125,0.007875 0.0045,0.010125 -0.001123,0.012375 0.009,0.007875 0.001123,0.009 0.009,0.003375 0.00675,0.009 0.010125,0.005625 0.003373,0.009 0.005625,0.007875 0.003373,0.009 0.00225,0.01125 -0.001123,0.01125 0.0045,0.018 0.005625,0.01125 -0.0045,0.009 0.0045,0.010125 -0.005625,0.009 0.005625,0.012375 -0.001123,0.01125 0.003373,0.009 -0.007875,0.041625 0.00225,0.010125 0,0.009 0.005625,0.00788 0,0.009 -0.009,0.00562 -0.0045,0.009 -0.001123,0.009 0.007875,0.00562 -0.001123,0.018 -0.00675,0.00675 -0.00225,0.010125 0,0.009 0.00675,0.00787 -0.003373,0.019125 -0.003373,0.010125 -0.00675,0.00788 0.001123,0.010125 -0.00225,0.009 -0.007875,0.010125 -0.003373,0.009 -0.009,0.00562 -0.003373,0.009 -0.001123,0.01125 0,0.010125 -0.0045,0.00788 0,0.01125 -0.00225,0.018 -0.01125,0.02025 0.001123,0.014625 -0.009,0.018 0,0.009 0.009,0 0.0135,0.00562 0,0.012375 -0.0135,0.00788 -0.009,0.012375 0.00225,0.014625 0,0.010125 0.007875,0.00787 -0.0495,0.1575 -0.010125,0.010125 -0.019125,0.025875 0.00675,0.00675 -0.030375,0.055125 -0.0135,0.012375 -0.007875,0.012375 -0.003373,0.010125 0,0.00112 -0.0045,0.009 -0.0045,0.009 -0.009,0.0045 -0.0135,-0.00337 -0.014625,0.009 -0.018,0.025875 -0.010125,0.01125 0.001123,0.0135 0.012375,0.00562 0.009,0.01125 0.02025,0.009 0.001123,0.00562 0.003373,0.009 0,0.0135 -0.003373,0.027 0.0045,0.016875 0.005625,0.01125 -0.009,0.012375 -0.021375,0.012375 0.00225,0.010125 0,0.0045 -0.016875,0.0045 -0.016875,-0.00112 -0.010125,0.01125 -0.003373,0.012375 0,0.014625 -0.00675,0.0135 -0.012375,0.00675 -0.014625,-0.00112 -0.014625,0.00337 -0.0135,0.00563 -0.036,0.04725 -0.005625,0.01125 -0.001123,0.016875 -0.003373,0.012375 -0.007875,0.01125 -0.030375,0.00675 -0.028125,0.00225 -0.016875,0.00563 -0.012375,0.00562 -0.01125,0.010125 -0.003373,0.0135 0.00675,0.012375 -0.014625,-0.00225 -0.012375,0.009 -0.009,0.014625 -0.001123,0.014625 -0.0045,0.012375 -0.0135,0.00675 -0.01125,0.01125 -0.01125,0.00787 -0.009,0.0135 -0.010125,0.009 -0.007875,0.012375 0.0045,0.012375 0.003373,0.014625 0.00675,0.01575 0.0045,0.012375 0.023625,0.023625 0.001123,0.0135 -0.009,0.01125 -0.001123,0.0135 0.01125,0.027 0.0135,0.00562 0.0135,-0.00225 0.02925,0.00788 0.016875,-0.00675 0.025875,0 0.012375,0.010125 0.00225,0.014625 -0.010125,0.014625 0,0.0135 0.003373,0.0135 0.021375,0.02025 0.001123,0.0135 -0.010125,0.009 -0.025875,0.0315 -0.01125,0.01125 -0.007875,0.012375 -0.005625,0.01575 -0.0045,0.0135 -0.027,0.01125 -0.0135,0.00225 -0.0135,-0.00225 -0.0135,0.0045 -0.010125,0.019125 0.001123,0.009 0.010125,0.01575 0.00225,0.01125 0,0.009 -0.00225,0.01125 -0.003373,0.009 -0.003373,0.009 0.003373,0.009 -0.001123,0.01125 -0.007875,0.00562 -0.00225,0.010125 0,0.009 -0.0045,0.010125 -0.00225,0.00225 -0.014625,0.01125 -0.00675,0.00787 -0.007875,0.012375 0.007875,0.009 0.0135,0.010125 0.03825,0.021375 0.00675,0.014625 0.01125,0.010125 -0.001123,0.0135 -0.00675,0.01125 -0.00675,0.00337 -0.001123,-0.00112 -0.014625,0.0135 -0.005625,0.00787 0.0045,0.009 0.009,0.0045 0.00675,0.00675 0.009,0.00225 0.0045,0.009 -0.00675,0.019125 -0.007875,0.00562 0.005625,0.00225 0.009,0.01125 0.00225,0.014625 0.007875,0.01575 -0.007875,0.01125 -0.00225,0.0135 0.003373,0.014625 -0.003373,0.0135 0,0.01575 -0.0135,0.0045 -0.005625,0.012375 -0.01125,0.009 -0.027,0 -0.014625,0.010125 -0.007875,0.01125 -0.005625,0.012375 -0.00675,0.027 0.00225,0.01575 -0.0045,0.0135 -0.001123,0.0135 -0.003373,0.0135 -0.010125,0.010125 -0.023625,0.01575 -0.016875,0.00225 -0.012375,-0.0045 -0.009,0.0135 0.001123,0.0135 -0.010125,0.010125 -0.0135,0.00225 -0.01125,-0.010125 -0.0135,0.00225 -0.01125,0.01125 -0.00225,0.012375 0.0011232,0.01575 -0.0045,0.014625 -0.00225,0.0135 0.0045,0.0135 0.02475,0.018 -0.010125,0.016875 0,0.014625 0.01125,0.00675 0.0045,0.0135 -0.007875,0.0135 0.007875,0.01125 0.012375,0.00675 0.012375,-0.00562 0.0135,0.00225 0.0045,0.014625 0.014625,0.00337 0.0135,-0.00225 0.00675,0.012375 -0.01125,0.010125 -0.012375,0.0045 0,0.0135 0.012375,0.00788 0.001123,0.0135 0.010125,0.010125 0.005625,0.012375 0.00225,0.014625 0.012375,0.00675 -0.01125,0.009 -0.0045,0.0135 -0.010125,0.01125 -0.005625,0.012375 0.0045,0.0135 -0.0225,0.019125 -0.0045,0.0135 0.001123,0.014625 -0.00675,0.0135 -0.01125,0.025875 -0.00225,0.0135 0.019125,0.021375 0,0.0135 -0.0045,0.027 0.005625,0.01125 0.018,0.02475 0.005625,0.01125 -0.003373,0.0135 -0.010125,0.01125 -0.014625,0.02475 -0.010125,0.010125 -0.012375,0.00675 -0.005625,0.028125 -0.010125,0.01125 -0.016875,0.00675 -0.01125,0.00787 -0.027,0.01125 -0.012375,0 -0.00225,0.0135 L 0.013518,4.0095 0.0033732,3.999375 0,4.014 0.010125,4.02187 0.01575,4.038745 l 0.009,0.00562 0.012375,0 0.014625,0.00788 0.012375,-0.00788 0.01125,-0.010125 0.01125,-0.0045 0.00225,0.016875 0.00225,0.025875 0.00675,0.012375 L 0.1035,4.09724 0.117,4.09049 0.1305,4.08487 l 0.025875,0.0135 0.021375,0.02025 0.009,0.01125 -0.009,0.010125 -0.01125,0.009 -0.007875,0.01125 -0.00675,0.012375 -0.003373,0.012375 0.0135,0.02475 0.009,0.01125 0.0135,0.00675 0.012375,0 0.012375,0.00562 0.01125,0.010125 0.012375,0.0045 0.014625,0.00112 0.02475,0.009 0.028125,0.00563 0.027,0 0.01125,0.009 0.010125,0.014625 0.010125,0.010125 0.012375,0.00788 0.012375,0.0045 0.005625,0.012375 -0.00675,0.012375 0.005625,0.0135 0.00225,0.014625 0.010125,0.009 0.0135,0.009 0.0135,-0.00112 0.012375,0.00788 0.014625,0.0045 0.0135,0.00562 0.01125,0.00675 0.019125,0.00788 0,-0.00112 0.0045,-0.0225 0.0315,-0.0585 0.016875,-0.014625 0.02925,-0.0405 0.027,-0.0225 0.01575,-0.02025 0.009,-0.00337 0.045,-0.00563 0.02475,-0.00112 0.016875,-0.00112 0.018,-0.01575 0.0315,-0.00112 0.009,-0.0045 0.02475,0.0045 0.01125,0.0045 L 0.8145,4.21428 0.792,4.260405 0.768375,4.282905 0.7605,4.291905 0.7515,4.294155 0.734625,4.291905 0.7245,4.285155 0.703125,4.286275 0.6975,4.291905 0.694127,4.299785 0.679502,4.296415 l -0.027,0.0045 -0.012375,-0.00225 -0.007875,0.01125 -0.009,0 -0.001123,0.00562 0.00225,0.010125 0.0225,0.010125 0.02025,0.00787 0.003373,0 0.007875,-0.00112 0.030375,0.00562 0.0045,0 0.016875,-0.010125 0.0135,-0.01125 0.007875,-0.00562 0.023625,-0.02475 0.0315,-0.0495 0.021375,-0.043875 0.001123,-0.00112 0.001123,0.00225 0.003373,-0.00225 0,-0.00112 0,-0.00112 0.001123,0 0.003373,-0.0045 0,-0.00112 0.009,-0.00675 0.036,-0.018 0.001123,-0.00337 0,-0.00563 0,-0.00112 0.0045,-0.01575 0.005625,0.0135 0.01575,-0.010125 0.0405,-0.00337 0.014625,-0.00787 0.007875,-0.00675 0,-0.010125 0.009,-0.0045 0.010125,-0.014625 0.012375,-0.012375 0.00225,-0.00225 0.014625,-0.0135 0.00787,-0.01575 -0.00787,-0.02025 -0.009,-0.01125 -0.00562,0.00112 0,0.014625 -0.00337,0.009 -0.010125,0.009 -0.00225,0.00225 -0.001123,0 0,-0.00225 L 0.986629,4.05682 0.985506,4.05794 0.984383,4.05906 0.98326,4.06018 l -0.001123,0 -0.001123,0 -0.001123,0 -0.003373,0.00112 0,0.00112 -0.001123,0 -0.003373,0 -0.001123,0 -0.001123,0 -0.001123,0 -0.001123,0.00112 -0.001123,0 -0.001123,0.00112 -0.001123,0 -0.001123,0 0,0.00112 -0.00225,0 0,0.00112 -0.001123,0 -0.001123,0 0,0.00112 -0.00225,0 -0.01125,0.00337 -0.010125,0.00788 -0.00225,0 -0.001123,0.00112 -0.001123,0 -0.001123,0 -0.001123,0.00112 -0.00225,0 0,0.00112 -0.001123,0 -0.001123,0 0,0.00112 -0.001123,0 -0.001123,0.00112 -0.001123,0.00112 0,0.00112 -0.001123,0 0,0.00112 -0.001123,0.00112 -0.001123,0 0,0.00112 0,0.00112 -0.00225,0 0,0.00112 -0.01575,0.0045 -0.0225,0.00112 L 0.868566,4.09496 0.849441,4.08821 0.843816,4.08371 l 0.02925,0.009 0.016875,0 0.05175,-0.025875 0.005625,-0.00225 0.030375,-0.01125 0.001123,0 0.00225,-0.00337 -0.00225,-0.00562 -0.02925,-0.009 -0.009,-0.009 -0.01575,-0.018 -0.0225,-0.02925 -0.03375,0.025875 -0.001123,0 -0.025875,0.00563 -0.007875,-0.00788 0.02025,-0.00675 0.0135,0 0.009,-0.0045 0.00225,-0.00112 0.0135,-0.0135 0.00225,-0.00225 0.0045,-0.00788 -0.01125,-0.023625 -0.009,-0.00675 -0.02025,-0.00675 -0.021375,-0.00337 -0.00675,0.00225 0.010125,0.00788 0.003373,0.00112 0.028125,0.009 0.005625,0.00337 0.001123,0.00563 -0.005625,0.00675 -0.02925,0.00563 -0.012375,-0.00112 -0.019125,-0.00787 -0.009,-0.00675 -0.0135,-0.01575 L 0.774062,3.91724 0.769562,3.904865 0.771812,3.898115 0.788687,3.87899 0.799937,3.87562 0.816812,3.854245 0.820185,3.84187 0.8358732,3.819375 l 0.0315,-0.019125 0.019125,-0.018 0.00675,-0.010125 0.0135,-0.02475 0.0225,-0.02025 L 0.9506232,3.69 0.9629982,3.677625 0.9922482,3.6315 l 0.0315,-0.02475 0.012375,-0.016875 0.00337,-0.0045 0.0135,-0.0135 0.009,-0.01575 0.00788,-0.00225 0.00788,0.0045 0.0045,-0.00112 0.014625,-0.021375 0.0045,-0.0135 0.012375,-0.016875 0.0405,-0.041625 0.016875,-0.010125 0.0225,-0.009 0.0045,-0.00337 0.010125,-0.00788 0.019125,-0.00675 0.046125,-0.009 0.012375,0.0045 0.009,-0.00112 0.036,-0.016875 0.014625,-0.00225 0.023625,0.00112 0.01125,0.00337 0.01125,0.012375 0.00675,0.00112 0.00675,0.01125 0.010125,0.00563 0.00675,0.00225 0.012375,-0.016875 -0.00225,-0.019125 0.0045,-0.0135 0.010125,-0.012375 0.014625,-0.0135 0.028125,-0.023625 0.030375,-0.00787 0.043875,-0.00788 0.010125,-0.0135 0.01125,-0.00112 0.010125,-0.00675 0.030375,-0.00675 0.00788,0.00337 0.0135,0 0.01575,0.00563 0.00788,-0.00337 0.009,-0.00112 0.0135,-0.00675 0.018,-0.010125 0.019125,0.0045 0.00225,-0.00112 0.010125,-0.0045 0.023625,-0.019125 0.00562,-0.00337 0.068625,-0.037125 0.016875,0 0.028125,-0.009 0.0315,-0.014625 0.041625,-0.009 0.063,-0.012375 0.02475,0.00225 0.009,0 0.00562,-0.00112 0.0225,-0.010125 0.030375,-0.0045 0.02025,-0.00225 0.023625,-0.01575 0.019125,-0.00563 0.016875,-0.01125 0.0135,0.00112 0.06975,-0.01575 0.014625,-0.0045 0.023625,-0.01575 0.0225,0.00225 0.0135,-0.0045 0.02475,0.00225 0.025875,-0.019125 0.00675,-0.00225 0.019125,0 0.0405,-0.02025 0.02475,-0.00675 0.00787,-0.00225 0.050625,-0.010125 0.072,-0.00337 0.079875,-0.02475 0.018,-0.00788 0.036,-0.01575 0.037125,-0.034875 0.009,-0.018 0.00225,-0.010125 0.00562,-0.0225 0.00675,-0.0315 0.023625,-0.027 0.00225,0.0045 -0.00788,0.01575 0.0045,0.00112 0.0135,-0.016875 0.010125,-0.027 0.01125,-0.0225 0.02475,-0.02475 0.018,-0.023625 0.00563,-0.010125 0.00225,-0.00337 0.01575,-0.02925 0.009,-0.014625 0.018,-0.01575 0.009,-0.00562 0.0315,-0.02025 0.048375,-0.0135 0.041625,-0.016875 0.057375,-0.03375 0.02925,-0.0225 0.059625,-0.043875 0.014625,-0.01125 0.048375,-0.014625 0.0225,-0.018 0.036,-0.021375 0.012375,0 0.023625,-0.012375 0.03825,-0.012375 0.014625,-0.010125 0.00675,-0.0045 0.036,-0.012375 0.023625,-0.0135 0.036,-0.01125 0.082125,-0.046125 0.030375,-0.00563 0.00787,-0.00225 0.00563,-0.00337 -0.018,-0.02475 0.00337,-0.0045 0.009,0.01125 0.009,0.00787 0.00563,-0.0045 0.00112,-0.00112 0.00337,-0.010125 0.00562,-0.0135 0.023625,-0.014625 0.016875,-0.018 0.03825,-0.01575 0.03375,-0.00337 0.01125,-0.00787 0.0135,0 0.0135,-0.01125 0.00675,0.00225 0.010125,-0.00112 0.028125,-0.014625 0.01575,-0.012375 0.03375,-0.036 0.014625,-0.021375 0.014625,-0.012375 0.009,-0.00225 0.009,-0.00112 0.00225,-0.00225 0,-0.023625 0.00112,0 0.00675,-0.00337 0.023625,-0.00225 0.0045,-0.010125 0.0135,-0.00225 0.0135,-0.01575 0.012375,-0.00562 0.00787,-0.027 0.00788,-0.021375 0.04275,-0.046125 0.018,-0.010125 0.012375,-0.0045 0.00112,0 0.00675,0.010125 0.0045,0 0.016875,-0.01125 0.00112,-0.01125 0.00337,-0.00337 0.00563,-0.00675 0.0045,0.00112 0.0045,0.00112 0.02025,-0.00337 0.00788,-0.0045 0.0045,-0.00675 0.00675,-0.030375 0.01125,-0.0135 0.01575,-0.00337 0.00337,0 0.00562,-0.010125 -0.00112,-0.0045 -0.00112,-0.00337 0.00337,-0.018 0.00337,-0.010125 0.00675,-0.00337 0.00225,-0.01125 -0.00112,-0.012375 0.00337,-0.018 0.00675,-0.012375 0.00675,-0.0045 0,-0.010125 -0.0045,-0.025875 -0.00787,-0.009 -0.01125,0.00112 -0.00563,-0.00562 -0.00112,-0.00113 -0.00788,-0.00788 -0.009,-0.012375 0.00337,-0.037125 -0.00112,-0.00787 -0.00563,-0.0135 -0.01125,-0.00788 -0.027,0 -0.041625,-0.012375 0.0135,-0.00113 0.039375,0.00675 0.02925,-0.00225 0.00112,-0.039375 0.00337,-0.009 0.00675,-0.00337 0.00675,0.00337 0.00788,-0.009 -0.009,-0.028125 -0.00225,-0.0045 -0.019125,-0.032625 -0.0045,-0.00675 -0.00112,0 -0.01125,-0.016875 -0.01125,-0.00113 0,-0.00562 0.00337,-0.00788 -0.0045,-0.009 -0.0135,0 -0.01125,-0.009 -0.00787,-0.00113 -0.0045,0.00787 -0.0045,0 -0.00112,-0.0135 -0.009,-0.00562 -0.00788,-0.00338 0,-0.00113 -0.009,-0.00787 -0.0045,-0.0135 -0.00337,-0.021375 -0.00337,-0.028125 0,-0.027 -0.0045,-0.014625 0.00112,-0.014625 -0.00562,-0.009 -0.016875,0.018 -0.01125,0.0045 -0.00675,0.00787 -0.009,0.009 -0.018,0.00113 -0.01125,0.012375 -0.016875,0.01125 -0.00112,-0.00338 0.012375,-0.012375 0.009,-0.0135 0.023625,-0.00338 0.00675,-0.010125 0.018,-0.00788 0.018,-0.021375 0.00563,-0.00337 0.00788,-0.0135 0.01125,-0.043875 -0.016875,-0.010125 -0.00337,-0.00675 0.0045,-0.00113 0.018,0.00675 0.021375,-0.0225 0.0225,-0.019125 0.010125,-0.00337 0.0135,0 0.00337,0.00562 0.0045,0.00675 0.00112,0.012375 0.0045,0.00562 0.014625,0.00225 0.02025,0.018 0.00675,0.00113 0.009,0.012375 0.00563,-0.00675 0.0045,-0.009 0.00225,-0.016875 0.00337,-0.00225 0.00788,0.00225 0.0045,-0.00338 0.00337,-0.00113 0.00112,0 0.0045,0.01575 0.00788,0.00562 0.01575,0.00113 0.00339,0.00223 0.00225,-0.00562 -0.00225,-0.00338 -0.01125,-0.0045 -0.00337,-0.0135 0.0315,-0.00787 0.010125,-0.012375 0.00563,-0.01125 -0.0135,-0.02025 0,-0.010125 0.00225,-0.0045 0.00788,0.00337 0.01125,0.00337 0.00225,-0.00675 -0.010125,-0.009 -0.00113,-0.00562 0.00675,-0.009 0.00225,-0.00225 -0.00337,-0.0045 0.00225,-0.0045 0.009,-0.00225 0.01125,-0.014625 0.018,-0.00562 0.00225,-0.00562 -0.00225,-0.0045 -0.009,-0.00113 -0.00563,-0.00675 -0.010125,0 L 4.41,1.017 4.399875,1.0215 4.3875,1.006875 4.38525,0.999 l -0.009,0 -0.010125,-0.009 -0.00225,0 -0.00337,0.01125 -0.00675,0 -0.00225,0 -0.00675,0.009 L 4.341385,1.00463 4.334635,1.00125 4.329005,0.9945 4.330125,0.98325 4.323375,0.975375 4.320005,0.9765 4.306505,0.97875 4.298625,0.972 l -0.00788,0.005625 -0.012375,0 L 4.275,0.9855 l 0.00337,0.010125 -0.00563,0.00675 -0.0045,0 L 4.25024,0.98325 4.25362,0.975375 4.24237,0.972 4.223245,0.950625 4.227745,0.94275 4.226625,0.939375 4.217625,0.937125 4.214255,0.93375 4.216505,0.930375 4.212005,0.92025 4.214255,0.910125 4.223255,0.9 4.222135,0.896625 4.214255,0.89775 4.210885,0.89325 4.222135,0.876375 4.218765,0.873 l -0.00788,0.00225 0,-0.003375 0.018,-0.021375 0.00225,-0.01125 -0.00225,-0.0045 -0.00788,-0.001125 -0.00225,-0.0045 0.01125,-0.01125 -0.00788,-0.003375 -0.00562,-0.001125 0,-0.001125 -0.014625,0 -0.00112,0 L 4.18051,0.811125 4.165885,0.808875 4.159135,0.81 4.151265,0.81 4.143385,0.815625 4.136635,0.82125 4.135515,0.824625 4.128765,0.828 4.123135,0.826875 l -0.00112,0 0,-0.001125 -0.00675,-0.001125 -0.00788,-0.00225 -0.0135,-0.01125 -0.00337,-0.00225 -0.00112,0 L 4.083765,0.79875 4.080395,0.792 l -0.0045,-0.003375 -0.00112,0 -0.00225,-0.00225 -0.00788,-0.005625 -0.00225,-0.00225 0,-0.001125 -0.00787,-0.01575 -0.0045,-0.012375 -0.00337,-0.012375 -0.00337,-0.00225 -0.00675,0 -0.009,0.005625 -0.014625,0.009 -0.00563,-0.001125 -0.0045,0 -0.0045,-0.0045 -0.0495,0.014625 -0.012375,-0.005625 -0.019125,0 L 3.884655,0.77175 3.875655,0.775125 3.859898,0.77625 3.822773,0.770625 3.810398,0.7695 3.799148,0.770625 3.793528,0.774 l -0.00675,0.0045 -0.05175,0.050625 -0.012375,0.027 -0.010125,0.00675 -0.02925,0 -0.04275,-0.01125 -0.00225,0 -0.0135,0 -0.028125,0.00675 -0.01575,0.0045 -0.025875,0.016875 -0.027,0.027 -0.01125,0.007875 -0.00563,0.009 0.00675,0.025875 0.009,0.009 0.0135,0.0135 0.00225,0.0045 0.00337,0.00675 0.00112,0.00675 -0.00225,0.005625 -0.009,0.005625 -0.018,0.00338 L 3.501013,1.00238 3.488638,1.00013 3.440263,0.983255 l -0.0405,-0.00675 -0.018,0 -0.037125,0.02475 -0.02025,0.00225 -0.00112,0 -0.0135,-0.00338 L 3.290651,0.999 3.279401,0.99225 3.276031,0.991125 3.231031,0.96525 3.222031,0.959625 3.219781,0.954 3.218661,0.952875 l 0,-0.001125 L 3.209651,0.945 3.198401,0.930375 3.177026,0.905625 3.092651,0.87525 3.081401,0.871875 3.076901,0.869625 3.073531,0.8685 3.060031,0.860625 3.026281,0.837 2.958781,0.829125 2.955411,0.828 2.927286,0.833625 l -0.01575,0.00675 -0.0135,0.01125 -0.019125,0.007875 -0.012375,0 -0.010125,-0.003375 -0.018,-0.007875 -0.00112,0 L 2.802416,0.844875 2.776541,0.873 2.746166,0.9225 2.720291,0.946125 l -0.0315,0.018 -0.01575,0.0045 L 2.656166,0.972 2.635916,0.97425 2.613416,0.972 l -0.0135,-0.0045 -0.00112,0 -0.00225,-0.003375 -0.00675,-0.00675 -0.039375,-0.02025 -0.009,-0.009 -0.00225,-0.0045 -0.00562,-0.0135 L 2.534671,0.8865 2.530171,0.869625 2.523421,0.84825 2.517801,0.83925 2.516681,0.835875 2.515561,0.833625 2.515561,0.8325 2.514441,0.824625 2.513321,0.82125 2.511071,0.819 2.507701,0.8145 2.502071,0.80775 2.498701,0.80325 2.482951,0.790875 2.466076,0.788625 2.459326,0.792 l -0.00675,0.0045 -0.00112,0 L 2.440175,0.795375 2.386175,0.761625 2.3738,0.747 2.36588,0.739125 2.36026,0.73575 2.341135,0.723375 l -0.08325,0 L 2.253385,0.72225 2.250015,0.721125 2.211765,0.70875 2.200515,0.696375 2.191515,0.703125 2.17014,0.718875 2.15664,0.716625 2.13189,0.698625 2.12626,0.6975 2.12289,0.702 2.11952,0.711 2.11615,0.72675 2.11727,0.732375 2.091395,0.761625 2.066645,0.765 2.03177,0.779625 2.01152,0.793125 1.98677,0.790875 1.954145,0.819 1.91027,0.828 l -0.00337,0 -0.055125,-0.00675 -0.00337,0 -0.00225,-0.001125 -0.00225,0 L 1.836015,0.81675 1.81914,0.80325 1.81239,0.766125 1.788765,0.736875 1.787645,0.732375 1.788765,0.727875 1.789885,0.72225 1.82926,0.6885 1.83263,0.682875 l 0.00225,-0.01125 0,-0.007875 -0.00112,0 -0.021375,-0.037125 -0.009,-0.003375 -0.018,0.0045 L 1.778635,0.62325 1.777515,0.61875 1.775265,0.599625 1.78539,0.5805 1.78876,0.570375 1.79101,0.558 1.78764,0.549 1.78202,0.5355 l 0,-0.00675 L 1.794395,0.518625 1.798895,0.50625 1.801145,0.500625 1.76627,0.41175 1.72577,0.33975 1.695395,0.318375 l -0.00788,-0.009 0,-0.0135 -0.0045,-0.007875 -0.01125,-0.00675 -0.018,0 -0.06975,0 -0.045,0.0045 -0.00112,-0.001125 -0.025875,-0.009 -0.00112,0 L 1.49965,0.2745 1.4704,0.282375 1.4569,0.289125 1.43215,0.300375 1.42315,0.3015 1.413023,0.29925 1.407403,0.297 1.379278,0.273375 1.368028,0.24975 1.360158,0.22275 1.352278,0.21375 1.351158,0.212625 1.317408,0.17325 1.302783,0.160875 1.249908,0.158625 1.248788,0.1575 1.235288,0.153 l -0.00112,0 -0.038268,0.003375 -0.021375,-0.00225 -0.00112,0 -0.00112,0 L 1.147535,0.144 1.146415,0.144 1.143045,0.133875 1.139675,0.12375 1.128425,0.118125 1.121675,0.11925 l -0.00112,0 L 1.098055,0.1395 1.090185,0.14175 1.053026,0.12825 1.018151,0.1035 0.965276,0.07425 0.937151,0.066375 0.889901,0.050625 0.875276,0.0495 0.859526,0.04725 0.816776,0.027 0.810026,0.023625 0.762759,-2.3960073e-8 z"
     id="rect4" />
  <path
     style="fill:#da121a"
     d="m 0.8009982,0.47924998 0.0045,0.0045 0.014625,0.001125 0.0135,-0.005625 -0.032625,0 z m 0.032625,0 0.018,0.00675 0.00675,0.009 0,0.009 -0.001123,0.009 -0.00675,0.00675 -0.003373,0.02025 0,0.01125 -0.001123,0.021375 -0.00675,0.018 -0.00675,0.00675 -0.009,0.018 -0.003373,0.010125 0,0.009 -0.009,0.003375 -0.0135,0.0135 -0.003373,0.01125 0.005625,0.007875 0.01125,0.01125 0.001123,0.014625 -0.02475,0.016875 -0.0135,-0.007875 -0.0135,0.005625 -0.00675,0.0135 0,0.0135 0.00675,0.01125 0.01575,0.014625 0,0.009 -0.010125,0.007875 0.0045,0.010125 -0.001123,0.012375 0.009,0.007875 0.001123,0.009 0.009,0.003375 0.00675,0.009 0.010125,0.005625 0.003373,0.009 0.005625,0.007875 0.003373,0.009 0.00225,0.01125 -0.001123,0.01125 0.0045,0.018 0.005625,0.01125 -0.0045,0.009 0.0045,0.010125 -0.005625,0.009 0.005625,0.012375 -0.001123,0.01125 0.001123,0.0045 1.78425,0 -0.0135,-0.0045 -0.00112,0 -0.00225,-0.003375 -0.00675,-0.00675 -0.039375,-0.02025 -0.009,-0.009 -0.00225,-0.0045 -0.00563,-0.0135 0.00112,-0.023625 -0.0045,-0.016875 -0.00675,-0.021375 -0.00563,-0.009 -0.00112,-0.003375 -0.00112,-0.00225 0,-0.001125 -0.00112,-0.007875 -0.00112,-0.003375 -0.00225,-0.00225 -0.00337,-0.0045 -0.00562,-0.00675 -0.00337,-0.0045 -0.01575,-0.012375 -0.016875,-0.00225 -0.00675,0.003375 -0.00675,0.0045 -0.00112,0 -0.01125,-0.001125 -0.054,-0.03375 -0.012393,-0.014625 -0.00789,-0.007875 -0.00562,-0.003375 -0.019125,-0.012375 -0.08325,0 -0.0045,-0.001125 -0.00337,-0.001125 -0.03825,-0.012375 -0.01125,-0.012375 -0.009,0.00675 -0.021375,0.01575 -0.0135,-0.00225 -0.02475,-0.018 -0.00563,-0.001125 -0.00337,0.0045 -0.00337,0.009 -0.00337,0.01575 0.00112,0.005625 -0.025875,0.02925 -0.02475,0.003375 -0.034875,0.014625 -0.02025,0.0135 -0.02475,-0.00225 -0.032625,0.028125 -0.043875,0.009 -0.00337,0 -0.055125,-0.00675 -0.00337,0 -0.00225,-0.001125 -0.00225,0 -0.00789,-0.003375 -0.016875,-0.0135 -0.00675,-0.037125 -0.023625,-0.02925 -0.00112,-0.0045 0.00112,-0.0045 0.00112,-0.005625 0.039375,-0.03375 0.00337,-0.005625 0.00225,-0.01125 0,-0.007875 -0.00112,0 -0.021375,-0.037125 -0.009,-0.003375 -0.018,0.0045 -0.00675,-0.0045 -0.00112,-0.0045 -0.00225,-0.019125 0.010125,-0.019125 0.00337,-0.010125 0.00225,-0.012375 -0.00337,-0.009 -0.00562,-0.0135 0,-0.00675 0.012375,-0.010125 0.0045,-0.012375 0.00225,-0.005625 -0.00788,-0.021375 -0.959625,0 z m 3.202875,0.255375 -0.009,0.005625 -0.014625,0.009 -0.00562,-0.001125 -0.0045,0 -0.0045,-0.0045 -0.0495,0.014625 -0.012375,-0.005625 -0.019125,0 -0.032625,0.019125 -0.009,0.003375 -0.015755,0.001125 -0.037125,-0.005625 -0.012375,-0.001125 -0.01125,0.001125 -0.00562,0.003375 -0.00675,0.0045 -0.05175,0.050625 -0.012375,0.027 -0.010125,0.00675 -0.02925,0 -0.04275,-0.01125 -0.00225,0 -0.0135,0 -0.028125,0.00675 -0.01575,0.0045 -0.025875,0.016875 -0.027,0.027 -0.01125,0.007875 -0.00563,0.009 0.00675,0.025875 0.009,0.009 0.0135,0.0135 0.702,0 -0.019125,-0.021375 0.0045,-0.007875 -0.00112,-0.003375 -0.009,-0.00225 -0.00337,-0.003375 0.00225,-0.003375 -0.0045,-0.010125 0.00225,-0.010125 0.009,-0.010125 -0.00112,-0.003375 -0.00788,0.001125 -0.00337,-0.0045 0.01125,-0.016875 -0.00337,-0.003375 -0.00788,0.00225 0,-0.003375 0.018,-0.021375 0.00225,-0.01125 -0.00225,-0.0045 -0.00788,-0.001125 -0.00225,-0.0045 0.01125,-0.01125 -0.00788,-0.003375 -0.00562,-0.001125 0,-0.001125 -0.014625,0 -0.00112,0 -0.02025,-0.001125 -0.014625,-0.00225 -0.00675,0.001125 -0.00787,0 -0.00788,0.005625 -0.00675,0.005625 -0.00112,0.003375 -0.00675,0.003375 -0.00563,-0.001125 -0.00112,0 0,-0.001125 -0.00675,-0.001125 -0.00788,-0.00225 -0.0135,-0.01125 -0.00337,-0.00225 -0.00112,0 -0.00563,-0.010125 -0.00337,-0.00675 -0.0045,-0.003375 -0.00112,0 -0.00225,-0.00225 -0.00788,-0.005625 -0.00225,-0.00225 0,-0.001125 -0.00787,-0.01575 -0.0045,-0.012375 -0.00337,-0.012375 -0.00337,-0.00225 -0.00675,0 z m -1.081125,0.093375 -0.028125,0.005625 -0.01575,0.00675 -0.0135,0.01125 -0.019125,0.007875 -0.012375,0 -0.010125,-0.003375 -0.018,-0.007875 -0.00112,0 -0.034875,-0.003375 -0.025875,0.028125 -0.030375,0.0495 -0.025875,0.023625 -0.0315,0.018 -0.01575,0.0045 -0.016875,0.003375 0.586125,0 -0.01125,-0.00675 -0.009,-0.005625 -0.00225,-0.005625 -0.00112,-0.001125 0,-0.001125 -0.00901,-0.00675 -0.01125,-0.014625 -0.021375,-0.02475 -0.084375,-0.030375 -0.01125,-0.003375 -0.0045,-0.00225 -0.00337,-0.001125 -0.0135,-0.007875 -0.03375,-0.023625 -0.0675,-0.007875 -0.00337,-0.001125 z m -2.205,0.63787502 -0.03375,0.108 -0.010125,0.010125 -0.019125,0.025875 0.00675,0.00675 -0.030375,0.055125 -0.0135,0.012375 -0.007875,0.012375 -0.003373,0.010125 0,0.00112 -0.0045,0.009 -0.0045,0.009 -0.009,0.0045 -0.0135,-0.00337 -0.014625,0.009 -0.018,0.025875 -0.010125,0.01125 0.001123,0.0135 0.012375,0.00562 0.009,0.01125 0.02025,0.009 0.001123,0.00562 0.003373,0.009 0,0.0135 -0.003373,0.027 0.0045,0.016875 0.005625,0.01125 -0.009,0.012375 -0.021375,0.012375 0.00225,0.010125 0,0.0045 -0.016875,0.0045 -0.016875,-0.00112 -0.010125,0.01125 -0.00225,0.009 3.5775,0 0.010125,-0.01125 0.018,-0.010125 0.012375,-0.0045 0.00112,0 0.00675,0.010125 0.0045,0 0.016875,-0.01125 0.00112,-0.01125 0.00337,-0.00337 0.00562,-0.00675 0.0045,0.00112 0.0045,0.00112 0.02025,-0.00337 0.00788,-0.0045 0.0045,-0.00675 0.00675,-0.030375 0.01125,-0.0135 0.01575,-0.00337 0.00337,0 0.00563,-0.010125 -0.00112,-0.0045 -0.00112,-0.00337 0.00337,-0.018 0.00337,-0.010125 0.00675,-0.00337 0.00225,-0.01125 -0.00112,-0.012375 0.00337,-0.018 0.00675,-0.012375 0.00675,-0.0045 0,-0.010125 -0.0045,-0.025875 -0.00787,-0.009 -0.01125,0.00112 -0.00562,-0.00562 -0.00112,-0.00113 -0.00788,-0.00788 -0.009,-0.012375 0.00337,-0.037125 -0.00112,-0.00788 -0.00563,-0.0135 -0.01125,-0.00787 -0.027,0 -0.041625,-0.012375 0.0135,-0.00113 0.039375,0.00675 0.02925,-0.00225 0.00112,-0.039375 0.00337,-0.009 0.00675,-0.00338 0.00675,0.00338 0.00788,-0.009 -0.009,-0.028125 -0.00225,-0.0045 -0.019125,-0.032625 -0.0045,-0.00675 -0.00112,0 -0.00112,-0.00113 -3.5055,0 z M 0.3791232,2.4525 0.37575,2.457 l 0,0.0135 0.003373,0.0135 0.021375,0.02025 0.001123,0.0135 -0.010125,0.009 -0.025875,0.0315 -0.01125,0.01125 -0.007875,0.012375 -0.005625,0.01575 -0.0045,0.0135 -0.027,0.01125 -0.0135,0.00225 -0.0135,-0.00225 -0.0135,0.0045 L 0.258746,2.646 0.259869,2.655 0.269994,2.67075 0.272244,2.682 l 0,0.009 -0.00225,0.01125 -0.003373,0.009 -0.003373,0.009 0.003373,0.009 -0.001123,0.01125 -0.007875,0.00563 -0.00225,0.010125 0,0.009 -0.0045,0.010125 -0.00225,0.00225 -0.014625,0.01125 -0.00675,0.00787 -0.007875,0.012375 0.007875,0.009 0.0135,0.010125 0.03825,0.021375 0.00675,0.014625 0.01125,0.010125 -0.001123,0.0135 -0.00675,0.01125 -0.00675,0.00337 -0.001123,-0.00112 -0.014625,0.0135 -0.005625,0.00788 0.0045,0.009 0.009,0.0045 0.00675,0.00675 0.009,0.00225 2.505375,0 0.00787,-0.01575 0.00225,-0.010125 0.00562,-0.0225 0.00675,-0.0315 0.023625,-0.027 0.00225,0.0045 -0.00788,0.01575 0.0045,0.00112 0.0135,-0.016875 0.010125,-0.027 0.01125,-0.0225 0.02475,-0.02475 0.018,-0.023625 0.00563,-0.010125 0.00225,-0.00337 0.01575,-0.02925 0.009,-0.014625 0.018,-0.01575 0.009,-0.00563 L 3.009367,2.646 3.057742,2.6325 3.099367,2.615625 3.156742,2.581875 3.185992,2.559375 3.245617,2.5155 3.260242,2.50425 3.308617,2.489625 l 0.0225,-0.018 0.032625,-0.019125 -2.984625,0 z m -0.286875,0.986625 0,0.00112 -0.007875,0.0135 0.007875,0.01125 0.012375,0.00675 0.012375,-0.00562 0.0135,0.00225 0.0045,0.014625 0.014625,0.00337 0.0135,-0.00225 0.00675,0.012375 -0.01125,0.010125 -0.012375,0.0045 0,0.0135 0.012375,0.00787 0.001123,0.0135 0.010125,0.010125 0.005625,0.012375 0.00225,0.014625 0.012375,0.00675 -0.01125,0.009 -0.0045,0.0135 -0.010125,0.01125 -0.005625,0.012375 0.0045,0.0135 -0.0225,0.019125 -0.0045,0.0135 0.001123,0.014625 -0.00675,0.0135 -0.01125,0.025875 -0.00225,0.0135 0.019125,0.021375 0,0.0135 -0.0045,0.027 0.005625,0.01125 0.018,0.02475 0.005625,0.01125 -0.003373,0.0135 -0.010125,0.01125 -0.014625,0.02475 -0.010125,0.010125 -0.012375,0.00675 -0.001123,0.00787 0.678375,0 -0.0135,-0.01575 -0.0045,-0.012375 0.00225,-0.00675 0.016875,-0.019125 0.01125,-0.00337 0.016875,-0.021367 0.003373,-0.012375 0.0157518,-0.022498 0.0315,-0.019125 0.019125,-0.018 0.00675,-0.010125 0.0135,-0.02475 0.0225,-0.02025 L 0.9506232,3.69 0.9629982,3.677625 0.9922482,3.6315 l 0.0315,-0.02475 0.012375,-0.016875 0.00337,-0.0045 0.0135,-0.0135 0.009,-0.01575 0.00788,-0.00225 0.00788,0.0045 0.0045,-0.00112 0.014625,-0.021375 0.0045,-0.0135 0.012375,-0.016875 0.0405,-0.041625 0.016875,-0.010125 0.0225,-0.009 0.0045,-0.00337 0.00337,-0.00225 -1.10925,0 z m 0.74475,0.487125 -0.00675,0.00225 0.005625,0.0045 0.032625,0 -0.010125,-0.00337 -0.021375,-0.00337 z"
     id="path6" />
</svg>
