<?xml version="1.0" encoding="utf-8"?>
<!-- Generator: Adobe Illustrator 25.0.0, SVG Export Plug-In . SVG Version: 6.00 Build 0)  -->
<svg version="1.1" id="Layer_1" xmlns="http://www.w3.org/2000/svg" xmlns:xlink="http://www.w3.org/1999/xlink" x="0px" y="0px"
	 viewBox="0 0 708.66 708.66" style="enable-background:new 0 0 708.66 708.66;" xml:space="preserve">
<style type="text/css">
	.st0{fill:#FFFFFF;stroke:#000000;stroke-width:5;stroke-miterlimit:10;}
</style>
<g>
	<path class="st0" d="M582.04,109.61c-30.59-26.7-66.47-47.36-106.65-61.41c-38.49-13.46-79.21-20.29-121.03-20.29
		c-0.01,0-0.02,0-0.03,0c-41.81,0-82.52,6.82-121.01,20.27c-40.18,14.04-76.07,34.7-106.66,61.4
		C58.2,169.32,21.78,254.14,21.33,354.87l0,0.11l0,0.11c0.44,100.74,36.85,185.56,105.29,245.3c30.59,26.7,66.47,47.36,106.65,61.41
		c38.49,13.46,79.21,20.29,121.03,20.29c0.01,0,0.02,0,0.03,0c41.81,0,82.52-6.82,121.01-20.27c40.18-14.04,76.07-34.7,106.67-61.4
		c68.46-59.73,104.88-144.56,105.34-245.3v-0.22C686.9,254.17,650.49,169.35,582.04,109.61z M354.3,632.09
		c-135.68-0.01-282.09-86.72-282.98-277.1C72.24,164.6,218.67,77.91,354.36,77.91c135.68,0.01,282.1,86.72,282.98,277.09
		C636.43,545.4,490,632.09,354.3,632.09z"/>
	<path class="st0" d="M485.72,419.55c-8.08-4.72-18.52-4.72-26.6,0c-4.86,2.84-8.36,7.03-10.24,12.05
		c-16.95,34.09-53.12,55.25-94.54,55.25c-41.28,0-77.35-21.01-94.38-54.9c-1.85-5.18-5.39-9.5-10.36-12.41
		c-8.08-4.72-18.52-4.72-26.6,0c-7.6,4.43-11.9,12.17-11.83,21.25c-0.05,5.84,1.72,11.11,5,15.32
		c25.89,49.87,78.51,80.73,138.16,80.73c0,0,0.01,0,0.01,0c59.57,0,112.12-30.78,138.04-80.53c3.38-4.24,5.21-9.59,5.16-15.51
		C497.62,431.72,493.32,423.98,485.72,419.55z"/>
	<ellipse class="st0" cx="238.11" cy="324.4" rx="39.96" ry="38.94"/>
	<ellipse class="st0" cx="472.22" cy="324.4" rx="39.96" ry="38.94"/>
</g>
</svg>
