<svg xmlns="http://www.w3.org/2000/svg" width="500" height="500" viewBox="0 0 500 500" version="1.1">
    <path d="" stroke="none" fill="#ffffff" fill-rule="evenodd"/>
    <path d="M 232.402 27.005 C 163.264 32.727, 100.812 69.712, 62.708 127.500 C 54.516 139.925, 41.912 166.067, 37.076 180.663 C 21.134 228.787, 22.611 283.347, 41.139 330.736 C 72.517 410.991, 146.357 465.922, 232.500 473.093 C 296.415 478.413, 361.634 454.204, 407.826 408.011 C 436.548 379.290, 457.894 340.968, 467.435 301 C 473.048 277.489, 474.621 245.776, 471.412 220.842 C 466.625 183.652, 451.004 145.873, 427.376 114.345 C 419.524 103.868, 400.550 84.409, 390.020 76.034 C 364.332 55.606, 330.895 39.294, 300 32.119 C 279.841 27.438, 252.326 25.357, 232.402 27.005 M 228.500 67.629 C 194.234 72.619, 166.194 83.702, 139.854 102.666 C 100.533 130.978, 73.220 178.722, 67.024 229.974 C 63.840 256.315, 67.944 288.959, 77.630 314.341 C 91.692 351.189, 115.333 381.229, 147 402.488 C 158.029 409.892, 178.719 419.938, 192.030 424.352 C 258.615 446.428, 334.597 427.318, 383.014 376.318 C 404.945 353.217, 422.179 319.994, 429.075 287.524 C 439.831 236.878, 427.133 180.565, 395.475 138.512 C 369.628 104.178, 328.670 78.890, 284.379 69.918 C 275.609 68.142, 269.429 67.664, 252.500 67.453 C 240.950 67.310, 230.150 67.388, 228.500 67.629 M 154.994 184.878 C 146.700 187.586, 136.296 196.508, 132.349 204.298 C 127.821 213.234, 127.708 227.587, 132.099 236.194 C 135.303 242.475, 143.593 250.652, 149.891 253.745 C 154.877 256.194, 156.610 256.500, 165.500 256.499 C 174.546 256.499, 176.014 256.228, 180.881 253.666 C 188.118 249.857, 195.543 242.218, 198.796 235.236 C 201.070 230.356, 201.469 228.157, 201.469 220.500 C 201.469 212.830, 201.071 210.647, 198.781 205.732 C 195.504 198.698, 187.270 190.255, 180.500 186.988 C 176.553 185.083, 173.605 184.520, 166.500 184.317 C 161.550 184.176, 156.372 184.428, 154.994 184.878 M 324 184.879 C 310.863 189.184, 300.124 201.449, 297.985 214.594 C 296.875 221.414, 298.315 230.717, 301.433 236.862 C 304.904 243.705, 314.322 252.228, 321.291 254.836 C 341.518 262.404, 364.194 250.281, 369.590 229.015 C 373.768 212.551, 365.711 195.538, 349.881 187.400 C 345.384 185.088, 343.021 184.587, 335.500 184.347 C 330.550 184.189, 325.375 184.429, 324 184.879 M 240.271 303.540 C 233.505 305.362, 228.648 308.498, 222.679 314.897 C 215.429 322.670, 213.571 327.567, 213.532 339 C 213.504 347.455, 213.813 349.138, 216.348 354.301 C 219.983 361.702, 227.298 369.017, 234.699 372.652 C 239.774 375.144, 241.629 375.500, 249.521 375.500 C 257.695 375.500, 259.168 375.192, 265.206 372.219 C 272.693 368.533, 279.374 361.842, 283.118 354.280 C 285.150 350.174, 285.485 348.019, 285.492 339 C 285.499 329.876, 285.189 327.910, 283.129 324 C 277.426 313.173, 268.510 305.799, 258.184 303.369 C 251.103 301.703, 246.946 301.742, 240.271 303.540"
          stroke="none" fill="#ffffff" fill-rule="evenodd"/>
</svg>