<svg xmlns="http://www.w3.org/2000/svg" width="500" height="500" viewBox="0 0 500 500" version="1.1">
    <path d="" stroke="none" fill="#ffffff" fill-rule="evenodd"/>
    <path d="M 232.402 27.005 C 163.264 32.727, 100.812 69.712, 62.708 127.500 C 54.516 139.925, 41.912 166.067, 37.076 180.663 C 21.134 228.787, 22.611 283.347, 41.139 330.736 C 72.517 410.991, 146.357 465.922, 232.500 473.093 C 296.415 478.413, 361.634 454.204, 407.826 408.011 C 436.548 379.290, 457.894 340.968, 467.435 301 C 473.048 277.489, 474.621 245.776, 471.412 220.842 C 466.625 183.652, 451.004 145.873, 427.376 114.345 C 419.524 103.868, 400.550 84.409, 390.020 76.034 C 364.332 55.606, 330.895 39.294, 300 32.119 C 279.841 27.438, 252.326 25.357, 232.402 27.005 M 228.500 67.629 C 194.234 72.619, 166.194 83.702, 139.854 102.666 C 100.533 130.978, 73.220 178.722, 67.024 229.974 C 63.840 256.315, 67.944 288.959, 77.630 314.341 C 91.692 351.189, 115.333 381.229, 147 402.488 C 158.029 409.892, 178.719 419.938, 192.030 424.352 C 258.615 446.428, 334.597 427.318, 383.014 376.318 C 404.945 353.217, 422.179 319.994, 429.075 287.524 C 439.831 236.878, 427.133 180.565, 395.475 138.512 C 369.628 104.178, 328.670 78.890, 284.379 69.918 C 275.609 68.142, 269.429 67.664, 252.500 67.453 C 240.950 67.310, 230.150 67.388, 228.500 67.629 M 240.399 108.906 C 238.143 109.931, 234.606 112.461, 232.537 114.529 C 224.948 122.118, 225.531 111.556, 225.230 246.997 C 225.042 332.117, 225.289 370.074, 226.056 373.768 C 229.122 388.537, 246.391 397.346, 259.673 390.916 C 265.258 388.213, 271.425 381.149, 272.904 375.760 C 273.775 372.588, 274.001 339.960, 273.787 248 L 273.500 124.500 271.342 120.500 C 265.213 109.142, 251.332 103.941, 240.399 108.906 M 160 176.590 C 155.517 178.527, 149.370 184.455, 146.915 189.210 C 145.094 192.738, 145 195.721, 145 250.075 L 145 307.229 147.661 312.119 C 152.180 320.422, 159.761 325, 168.990 325 C 176.171 325, 180.788 322.944, 186.201 317.335 C 193.224 310.058, 193.001 312.249, 192.994 250.782 C 192.991 216.783, 192.601 194.105, 191.983 191.877 C 190.645 187.062, 183.563 179.161, 178.539 176.878 C 173.612 174.640, 164.830 174.504, 160 176.590 M 322.500 176.061 C 318.163 177.334, 312.417 182.435, 309.249 187.824 L 306.500 192.500 306.500 250 C 306.500 307.151, 306.513 307.525, 308.678 311.568 C 311.479 316.802, 317.718 322.422, 322.468 323.990 C 324.539 324.673, 329.036 325.040, 332.578 324.814 C 337.641 324.492, 339.835 323.792, 343.201 321.426 C 348.411 317.764, 352.830 311.650, 354.042 306.426 C 354.543 304.267, 354.963 278.844, 354.976 249.932 C 354.996 206.510, 354.744 196.505, 353.529 192.432 C 349.687 179.554, 335.714 172.182, 322.500 176.061"
          stroke="none" fill="#ffffff" fill-rule="evenodd"/>
</svg>