<svg xmlns="http://www.w3.org/2000/svg" width="500" height="500" viewBox="0 0 500 500" version="1.1">
    <path d="" stroke="none" fill="#ffffff" fill-rule="evenodd"/>
    <path d="M 232.402 27.005 C 163.264 32.727, 100.812 69.712, 62.708 127.500 C 54.516 139.925, 41.912 166.067, 37.076 180.663 C 21.134 228.787, 22.611 283.347, 41.139 330.736 C 72.517 410.991, 146.357 465.922, 232.500 473.093 C 296.415 478.413, 361.634 454.204, 407.826 408.011 C 436.548 379.290, 457.894 340.968, 467.435 301 C 473.048 277.489, 474.621 245.776, 471.412 220.842 C 466.625 183.652, 451.004 145.873, 427.376 114.345 C 419.524 103.868, 400.550 84.409, 390.020 76.034 C 364.332 55.606, 330.895 39.294, 300 32.119 C 279.841 27.438, 252.326 25.357, 232.402 27.005 M 228.500 67.624 C 194.025 72.696, 166.205 83.694, 139.854 102.666 C 100.533 130.978, 73.220 178.722, 67.024 229.974 C 63.840 256.315, 67.944 288.959, 77.630 314.341 C 91.692 351.189, 115.333 381.229, 147 402.488 C 179.888 424.568, 223.031 436.003, 262.198 433.022 C 315.188 428.989, 364.571 402.551, 395.247 361.793 C 427.793 318.549, 440.117 262.390, 428.463 210.428 C 419.918 172.330, 398.315 135.598, 370.495 111.867 C 346.659 91.534, 315.342 76.249, 284.500 69.896 C 276.673 68.283, 269.828 67.765, 253 67.509 C 241.175 67.330, 230.150 67.382, 228.500 67.624 M 231.430 107.979 C 183.927 114.711, 143.233 143.745, 122.083 185.996 C 111.247 207.644, 107 225.664, 107 250 C 107 274.672, 111.335 292.758, 122.539 314.831 C 130.426 330.368, 138.890 341.790, 151.328 353.681 C 170.265 371.785, 193.839 384.292, 220.114 390.175 C 233.938 393.270, 263.651 393.536, 277 390.684 C 335.768 378.130, 380.083 332.899, 390.706 274.628 C 392.983 262.141, 392.961 237.531, 390.662 225.500 C 386.894 205.775, 378.633 185.637, 367.500 169.034 C 360.889 159.175, 345.636 143.361, 335.139 135.483 C 319.444 123.704, 296.988 113.741, 276.500 109.467 C 267.296 107.548, 240.679 106.669, 231.430 107.979"
          stroke="none" fill="#ffffff" fill-rule="evenodd"/>
</svg>