<svg xmlns="http://www.w3.org/2000/svg" width="500" height="500" viewBox="0 0 500 500" version="1.1">
    <path d="" stroke="none" fill="#ffffff" fill-rule="evenodd"/>
    <path d="M 232.402 27.005 C 163.264 32.727, 100.812 69.712, 62.708 127.500 C 54.516 139.925, 41.912 166.067, 37.076 180.663 C 21.134 228.787, 22.611 283.347, 41.139 330.736 C 72.517 410.991, 146.357 465.922, 232.500 473.093 C 296.415 478.413, 361.634 454.204, 407.826 408.011 C 436.548 379.290, 457.894 340.968, 467.435 301 C 473.048 277.489, 474.621 245.776, 471.412 220.842 C 466.625 183.652, 451.004 145.873, 427.376 114.345 C 419.524 103.868, 400.550 84.409, 390.020 76.034 C 364.332 55.606, 330.895 39.294, 300 32.119 C 279.841 27.438, 252.326 25.357, 232.402 27.005 M 228.500 67.624 C 194.025 72.696, 166.205 83.694, 139.854 102.666 C 100.533 130.978, 73.220 178.722, 67.024 229.974 C 63.840 256.315, 67.944 288.959, 77.630 314.341 C 91.692 351.189, 115.333 381.229, 147 402.488 C 179.888 424.568, 223.031 436.003, 262.198 433.022 C 315.188 428.989, 364.571 402.551, 395.247 361.793 C 427.793 318.549, 440.117 262.390, 428.463 210.428 C 419.918 172.330, 398.315 135.598, 370.495 111.867 C 346.659 91.534, 315.342 76.249, 284.500 69.896 C 276.673 68.283, 269.828 67.765, 253 67.509 C 241.175 67.330, 230.150 67.382, 228.500 67.624 M 228.870 108.468 C 181.632 116.214, 142.959 144.291, 122.083 185.996 C 111.254 207.630, 107 225.668, 107 249.955 C 107 273.405, 111.340 292.590, 121.235 312.880 C 130.645 332.175, 146.724 351.655, 163.844 364.504 C 172.964 371.349, 189.244 380.231, 200.500 384.504 C 219.242 391.618, 248.355 394.882, 268.100 392.083 C 315.048 385.429, 354.739 357.477, 376.552 315.710 C 382.808 303.730, 388.314 287.749, 390.706 274.628 C 392.983 262.141, 392.961 237.531, 390.662 225.500 C 386.894 205.775, 378.633 185.637, 367.500 169.034 C 360.889 159.175, 345.636 143.361, 335.139 135.483 C 319.752 123.935, 298.200 114.195, 278.500 109.886 C 266.426 107.245, 240.792 106.513, 228.870 108.468 M 221 151.132 C 211.852 153.585, 199.313 159.355, 191.286 164.806 C 172.060 177.862, 156.700 199.419, 150.447 222.122 C 147.244 233.753, 146.118 253.470, 147.935 266.105 C 152.766 299.690, 175.760 330.208, 206.690 344.085 C 213.089 346.956, 225.978 351, 228.730 351 C 229.748 351, 230 330.986, 230 250 C 230 194.450, 229.662 149.027, 229.250 149.061 C 228.838 149.094, 225.125 150.026, 221 151.132 M 270 250 C 270 305.550, 270.309 351, 270.686 351 C 273.133 351, 287.694 346.242, 293.727 343.471 C 308.712 336.588, 326.159 321.641, 335.130 308 C 351.758 282.717, 356.647 252.464, 348.937 222.567 C 341.961 195.514, 321.867 170.921, 296.282 158.121 C 289.953 154.955, 273.048 149, 270.388 149 C 270.175 149, 270 194.450, 270 250"
          stroke="none" fill="#ffffff" fill-rule="evenodd"/>
</svg>