<?xml version="1.0" encoding="utf-8"?>
<!-- Generator: Adobe Illustrator 25.0.0, SVG Export Plug-In . SVG Version: 6.00 Build 0)  -->
<svg version="1.1" id="Layer_1" xmlns="http://www.w3.org/2000/svg" xmlns:xlink="http://www.w3.org/1999/xlink" x="0px" y="0px"
	 viewBox="0 0 666 654.2" style="enable-background:new 0 0 666 654.2;" xml:space="preserve">
<style type="text/css">
	.st0{fill:#FFFFFF;}
	.st1{fill:none;stroke:#231F20;stroke-miterlimit:10;}
</style>
<g>
	<path class="st0" d="M560.7,81.7C530.1,55,494.2,34.3,454.1,20.3C415.6,6.8,374.9,0,333.1,0l0,0c-41.8,0-82.5,6.8-121,20.3
		C171.9,34.3,136,55,105.4,81.7C36.9,141.4,0.5,226.2,0,327v0.1v0.1c0.4,100.7,36.8,185.6,105.3,245.3
		c30.6,26.7,66.5,47.4,106.7,61.4c38.5,13.5,79.2,20.3,121,20.3l0,0c41.8,0,82.5-6.8,121-20.3c40.2-14,76.1-34.7,106.7-61.4
		c68.5-59.7,104.9-144.6,105.3-245.3V327C665.6,226.3,629.2,141.4,560.7,81.7z M333,604.2c-135.7,0-282.1-86.7-283-277.1
		C50.9,136.7,197.4,50,333,50c135.7,0,282.1,86.7,283,277.1C615.1,517.5,468.7,604.2,333,604.2z"/>
	<path class="st0" d="M464.4,391.6c-8.1-4.7-18.5-4.7-26.6,0c-4.9,2.8-8.4,7-10.2,12c-17,34.1-53.1,55.2-94.5,55.2
		c-41.3,0-77.4-21-94.4-54.9c-1.9-5.2-5.4-9.5-10.4-12.4c-8.1-4.7-18.5-4.7-26.6,0c-7.6,4.4-11.9,12.2-11.8,21.2
		c-0.1,5.8,1.7,11.1,5,15.3c25.9,49.9,78.5,80.7,138.2,80.7l0,0c59.6,0,112.1-30.8,138-80.5c3.4-4.2,5.2-9.6,5.2-15.5
		C476.3,403.8,472,396.1,464.4,391.6z"/>
	<ellipse class="st0" cx="216.8" cy="296.5" rx="40" ry="38.9"/>
	<ellipse class="st0" cx="450.9" cy="296.5" rx="40" ry="38.9"/>
</g>
<path class="st1" d="M870.1,338.9c-0.1,2.3-0.2,4.7-0.3,7c-0.1-0.9-0.2-1.8-0.2-2.6C869.7,341.8,869.9,340.3,870.1,338.9z"/>
</svg>
